# Open Dice d10, from scripts/export-models.mjs. Millimetres.
# By Zein Alaouie, CC BY 4.0. Credit: "Dice model by Zein Alaouie (Open Dice), CC BY 4.0"
# Face numbers: see ../faces/d10.json
o d10
v -0.327 -11.9502 0.2376
v -3.0718 -1.4631 8.6853
v -9.2095 -1.4631 0.2376
v -9.2095 -1.4631 -0.2376
v 0.327 11.9502 -0.2376
v 3.0718 1.4631 -8.6853
v -0.1249 11.9502 -0.3844
v 0.327 11.9502 0.2376
v -7.5131 1.0125 5.4586
v -2.62 -1.4631 8.8321
v 3.0718 1.4631 8.6853
v 7.311 -1.4631 5.6054
v 7.5131 -1.0125 5.4586
v 2.62 1.4631 8.8321
v 7.311 -1.4631 -5.6054
v 7.5903 -1.4631 -5.221
v 0.4042 -11.9502 0
v 7.5903 -1.4631 5.221
v -9.2867 -1.0125 0
v -7.5131 1.0125 -5.4586
v -0.327 -11.9502 -0.2376
v 9.2095 1.4631 0.2376
v -7.311 1.4631 -5.6054
v -2.8697 -1.0125 -8.8321
v 2.62 1.4631 -8.8321
v -2.62 -1.4631 -8.8321
v -3.0718 -1.4631 -8.6853
v -0.1249 11.9502 0.3844
v -2.8697 -1.0125 8.8321
v 0.1249 -11.9502 0.3844
v 2.8697 1.0125 8.8321
v 2.8697 1.0125 -8.8321
v 0.1249 -11.9502 -0.3844
v 9.2867 1.0125 0
v 7.5131 -1.0125 -5.4586
v -7.5903 1.4631 -5.221
v -7.311 1.4631 5.6054
v 9.2095 1.4631 -0.2376
v -0.4042 11.9502 0
v -7.5903 1.4631 5.221
f 1 2 3
f 1 3 4
f 5 6 7
f 5 7 8
f 9 3 2
f 10 2 1
f 11 12 13
f 11 8 14
f 15 16 17
f 18 12 17
f 18 13 12
f 19 20 4
f 19 4 3
f 19 3 9
f 21 17 1
f 21 1 4
f 22 13 18
f 22 5 8
f 22 8 11
f 22 11 13
f 23 7 24
f 23 24 20
f 25 26 24
f 25 24 7
f 25 7 6
f 27 20 24
f 27 24 26
f 27 26 21
f 27 21 4
f 27 4 20
f 28 8 7
f 28 14 8
f 29 14 28
f 29 9 2
f 29 2 10
f 29 10 14
f 30 17 12
f 30 10 1
f 30 1 17
f 31 10 30
f 31 30 12
f 31 12 11
f 31 11 14
f 31 14 10
f 32 6 15
f 32 26 25
f 32 25 6
f 33 17 21
f 33 21 26
f 33 26 32
f 33 32 15
f 33 15 17
f 34 22 18
f 34 18 17
f 34 17 16
f 35 34 16
f 35 16 15
f 35 15 6
f 36 7 23
f 36 23 20
f 36 20 19
f 37 9 29
f 37 29 28
f 38 5 22
f 38 22 34
f 38 34 35
f 38 35 6
f 38 6 5
f 39 28 7
f 39 7 36
f 39 36 19
f 39 37 28
f 40 37 39
f 40 39 19
f 40 19 9
f 40 9 37
