# Open Dice d12, from scripts/export-models.mjs. Millimetres.
# By Zein Alaouie, CC BY 4.0. Credit: "Dice model by Zein Alaouie (Open Dice), CC BY 4.0"
# Face numbers: see ../faces/d12.json
o d12
v 10.7197 0.3173 -3.8985
v 10.7197 0.3173 3.8985
v 10.7197 -0.3173 -3.8985
v 4.4119 10.5236 0
v 10.5236 0 -4.4119
v 6.6251 6.3078 -6.8212
v 0.3173 3.8985 -10.7197
v 0 4.4119 -10.5236
v 0.3173 -3.8985 -10.7197
v -6.3078 6.8212 -6.6251
v -3.8985 10.7197 -0.3173
v 6.3078 6.8212 -6.6251
v 6.3078 -6.8212 6.6251
v 3.8985 -10.7197 0.3173
v 4.4119 -10.5236 0
v 0 -4.4119 -10.5236
v 6.3078 -6.8212 -6.6251
v -4.4119 -10.5236 0
v -10.7197 -0.3173 3.8985
v -10.7197 -0.3173 -3.8985
v 6.8212 6.6251 -6.3078
v 6.8212 -6.6251 -6.3078
v 6.6251 -6.3078 -6.8212
v 3.8985 -10.7197 -0.3173
v 10.7197 -0.3173 3.8985
v -0.3173 3.8985 -10.7197
v -6.8212 6.6251 -6.3078
v -3.8985 10.7197 0.3173
v 0 4.4119 10.5236
v 3.8985 10.7197 0.3173
v 3.8985 10.7197 -0.3173
v 6.8212 6.6251 6.3078
v 6.6251 6.3078 6.8212
v -6.6251 6.3078 6.8212
v -6.8212 6.6251 6.3078
v -10.5236 0 4.4119
v -10.7197 0.3173 3.8985
v -6.6251 -6.3078 6.8212
v -6.6251 -6.3078 -6.8212
v -10.5236 0 -4.4119
v -6.3078 -6.8212 -6.6251
v -3.8985 -10.7197 -0.3173
v 10.5236 0 4.4119
v -6.6251 6.3078 -6.8212
v -0.3173 -3.8985 -10.7197
v -4.4119 10.5236 0
v 6.3078 6.8212 6.6251
v -6.3078 6.8212 6.6251
v 0.3173 3.8985 10.7197
v 0.3173 -3.8985 10.7197
v -10.7197 0.3173 -3.8985
v -0.3173 -3.8985 10.7197
v -6.3078 -6.8212 6.6251
v -6.8212 -6.6251 6.3078
v -6.8212 -6.6251 -6.3078
v -3.8985 -10.7197 0.3173
v 6.6251 -6.3078 6.8212
v 0 -4.4119 10.5236
v -0.3173 3.8985 10.7197
v 6.8212 -6.6251 6.3078
f 1 2 3
f 1 4 2
f 5 6 1
f 5 1 3
f 7 8 6
f 7 6 5
f 7 5 9
f 10 11 8
f 12 6 8
f 13 14 15
f 16 9 17
f 18 19 20
f 21 4 1
f 21 1 6
f 21 6 12
f 21 12 4
f 22 3 15
f 22 15 17
f 22 5 3
f 23 5 22
f 23 22 17
f 23 17 9
f 23 9 5
f 24 17 15
f 24 15 14
f 24 16 17
f 25 15 3
f 25 3 2
f 26 10 8
f 26 8 7
f 26 7 9
f 27 11 10
f 28 29 30
f 28 30 11
f 31 11 30
f 31 30 4
f 31 4 12
f 31 12 8
f 31 8 11
f 32 4 30
f 32 33 2
f 32 2 4
f 34 35 36
f 37 19 36
f 37 36 35
f 37 20 19
f 38 36 19
f 39 20 40
f 39 16 41
f 42 18 41
f 42 41 16
f 42 16 24
f 42 24 14
f 43 25 2
f 43 2 33
f 44 10 26
f 44 26 40
f 44 40 27
f 44 27 10
f 45 16 39
f 45 39 40
f 45 40 26
f 45 26 9
f 45 9 16
f 46 35 28
f 46 28 11
f 46 11 27
f 46 37 35
f 47 29 33
f 47 33 32
f 47 32 30
f 47 30 29
f 48 35 34
f 48 34 29
f 48 29 28
f 48 28 35
f 49 50 43
f 49 43 33
f 49 33 29
f 51 40 20
f 51 20 37
f 51 37 46
f 51 46 27
f 51 27 40
f 52 50 49
f 52 36 38
f 52 38 53
f 54 18 53
f 54 53 38
f 54 38 19
f 54 19 18
f 55 18 20
f 55 20 39
f 55 39 41
f 55 41 18
f 56 18 42
f 56 42 14
f 56 53 18
f 57 25 43
f 57 43 50
f 57 50 13
f 58 50 52
f 58 52 53
f 58 53 56
f 58 56 14
f 58 14 13
f 58 13 50
f 59 29 34
f 59 34 36
f 59 36 52
f 59 52 49
f 59 49 29
f 60 15 25
f 60 25 57
f 60 57 13
f 60 13 15
