# Open Dice d20, from scripts/export-models.mjs. Millimetres.
# By Zein Alaouie, CC BY 4.0. Credit: "Dice model by Zein Alaouie (Open Dice), CC BY 4.0"
# Face numbers: see ../faces/d20.json
o d20
v 6.4103 9.6637 0
v 6.1914 9.799 0.3541
v 9.799 0.3541 6.1914
v 0.3541 6.1914 9.799
v -0.3541 6.1914 9.799
v 0.2189 5.8373 10.0179
v 6.1914 -9.799 0.3541
v 5.8373 -10.0179 -0.2189
v 6.1914 -9.799 -0.3541
v 0.3541 6.1914 -9.799
v 9.799 0.3541 -6.1914
v 0.2189 5.8373 -10.0179
v -0.3541 6.1914 -9.799
v -0.2189 5.8373 -10.0179
v -0.2189 -5.8373 -10.0179
v 9.6637 0 6.4103
v 10.0179 0.2189 -5.8373
v 9.799 -0.3541 -6.1914
v 10.0179 0.2189 5.8373
v 10.0179 -0.2189 5.8373
v -0.2189 5.8373 10.0179
v -9.799 0.3541 6.1914
v -9.799 -0.3541 6.1914
v -10.0179 0.2189 5.8373
v 5.8373 10.0179 0.2189
v 5.8373 10.0179 -0.2189
v -5.8373 10.0179 -0.2189
v -9.799 0.3541 -6.1914
v 0 6.4103 -9.6637
v -0.3541 -6.1914 -9.799
v -6.1914 -9.799 -0.3541
v -9.799 -0.3541 -6.1914
v -5.8373 -10.0179 -0.2189
v -5.8373 -10.0179 0.2189
v 5.8373 -10.0179 0.2189
v 0.3541 -6.1914 9.799
v 6.4103 -9.6637 0
v 9.6637 0 -6.4103
v 6.1914 9.799 -0.3541
v 9.799 -0.3541 6.1914
v -6.4103 -9.6637 0
v -5.8373 10.0179 0.2189
v -10.0179 -0.2189 -5.8373
v -9.6637 0 -6.4103
v -6.4103 9.6637 0
v 0.3541 -6.1914 -9.799
v 10.0179 -0.2189 -5.8373
v 0.2189 -5.8373 10.0179
v -0.3541 -6.1914 9.799
v 0 -6.4103 9.6637
v -9.6637 0 6.4103
v -10.0179 -0.2189 5.8373
v -6.1914 -9.799 0.3541
v 0 6.4103 9.6637
v -6.1914 9.799 0.3541
v -6.1914 9.799 -0.3541
v -10.0179 0.2189 -5.8373
v 0.2189 -5.8373 -10.0179
v 0 -6.4103 -9.6637
v -0.2189 -5.8373 10.0179
f 1 2 3
f 4 5 6
f 4 6 3
f 4 3 2
f 7 8 9
f 10 11 12
f 10 12 13
f 14 13 12
f 14 12 15
f 16 3 6
f 17 11 1
f 17 18 11
f 19 20 17
f 19 17 1
f 19 1 3
f 19 3 20
f 21 5 22
f 21 6 5
f 23 22 24
f 25 26 27
f 25 4 2
f 25 2 26
f 28 13 14
f 29 13 27
f 29 27 26
f 29 26 10
f 29 10 13
f 30 31 32
f 30 32 15
f 33 31 30
f 33 8 34
f 33 34 31
f 35 34 8
f 35 8 7
f 35 7 36
f 37 20 7
f 37 7 9
f 37 9 18
f 38 12 11
f 38 11 18
f 39 1 11
f 39 11 10
f 39 10 26
f 39 26 2
f 39 2 1
f 40 7 20
f 40 20 3
f 40 3 16
f 40 16 36
f 40 36 7
f 41 32 31
f 42 25 27
f 43 28 32
f 43 32 41
f 44 32 28
f 44 28 14
f 44 14 15
f 44 15 32
f 45 24 22
f 46 18 9
f 46 9 8
f 46 30 15
f 46 38 18
f 47 17 20
f 47 20 37
f 47 37 18
f 47 18 17
f 48 49 36
f 48 36 16
f 48 16 6
f 48 6 21
f 50 36 49
f 50 49 34
f 50 34 35
f 50 35 36
f 51 23 49
f 51 21 22
f 51 22 23
f 52 24 43
f 52 43 41
f 52 41 23
f 52 23 24
f 53 34 49
f 53 49 23
f 53 23 41
f 53 41 31
f 53 31 34
f 54 25 42
f 54 42 5
f 54 5 4
f 54 4 25
f 55 5 42
f 55 42 27
f 55 45 22
f 55 22 5
f 56 13 28
f 56 28 45
f 56 45 55
f 56 55 27
f 56 27 13
f 57 43 24
f 57 24 45
f 57 45 28
f 57 28 43
f 58 38 46
f 58 46 15
f 58 15 12
f 58 12 38
f 59 30 46
f 59 46 8
f 59 8 33
f 59 33 30
f 60 48 21
f 60 21 51
f 60 51 49
f 60 49 48
