# Open Dice d4, from scripts/export-models.mjs. Millimetres.
# By Zein Alaouie, CC BY 4.0. Credit: "Dice model by Zein Alaouie (Open Dice), CC BY 4.0"
# Face numbers: see ../faces/d4.json
o d4
v 6.6125 6.9262 6.9262
v 6.9262 6.9262 6.6125
v -6.9262 6.9262 -6.6125
v -6.6125 6.9262 -6.9262
v 6.9262 -6.9262 -6.6125
v -6.6125 -6.9262 6.9262
v 6.6125 -6.9262 -6.9262
v -6.9262 -6.9262 6.6125
v -6.9262 -6.6125 6.9262
v 6.9262 -6.6125 -6.9262
v 6.9262 6.6125 6.9262
v -6.9262 6.6125 -6.9262
f 1 2 3
f 4 3 2
f 5 6 7
f 8 7 6
f 9 6 1
f 9 1 3
f 9 3 8
f 9 8 6
f 10 7 4
f 10 4 2
f 10 2 5
f 10 5 7
f 11 6 5
f 11 5 2
f 11 2 1
f 11 1 6
f 12 7 8
f 12 8 3
f 12 3 4
f 12 4 7
