# Open Dice d6, from scripts/export-models.mjs. Millimetres.
# By Zein Alaouie, CC BY 4.0. Credit: "Dice model by Zein Alaouie (Open Dice), CC BY 4.0"
# Face numbers: see ../faces/d6.json
o d6
v 7.639 -8.17 -7.639
v -7.639 -7.639 -8.17
v 7.639 -7.639 -8.17
v 8.17 -7.639 7.639
v 7.639 -8.17 7.639
v -7.639 -8.17 7.639
v 7.639 7.639 -8.17
v 8.17 7.639 -7.639
v -8.17 7.639 -7.639
v -8.17 7.639 7.639
v -7.639 8.17 -7.639
v -7.639 8.17 7.639
v 7.639 -7.639 8.17
v 7.639 7.639 8.17
v 8.17 7.639 7.639
v 8.17 -7.639 -7.639
v 7.639 8.17 -7.639
v -7.639 7.639 -8.17
v -8.17 -7.639 -7.639
v -7.639 7.639 8.17
v 7.639 8.17 7.639
v -7.639 -8.17 -7.639
v -8.17 -7.639 7.639
v -7.639 -7.639 8.17
f 1 2 3
f 1 4 5
f 1 5 6
f 7 3 2
f 7 8 3
f 9 10 11
f 12 11 10
f 13 6 5
f 13 5 4
f 13 4 14
f 15 14 4
f 15 4 8
f 16 4 1
f 16 1 3
f 16 3 8
f 16 8 4
f 17 8 7
f 17 7 11
f 17 11 12
f 17 15 8
f 18 11 7
f 18 7 2
f 18 2 9
f 18 9 11
f 19 10 9
f 19 9 2
f 20 13 14
f 20 14 12
f 20 12 10
f 21 15 17
f 21 17 12
f 21 12 14
f 21 14 15
f 22 6 19
f 22 19 2
f 22 2 1
f 22 1 6
f 23 10 19
f 23 19 6
f 23 20 10
f 24 20 23
f 24 23 6
f 24 6 13
f 24 13 20
