# Open Dice d8, from scripts/export-models.mjs. Millimetres.
# By Zein Alaouie, CC BY 4.0. Credit: "Dice model by Zein Alaouie (Open Dice), CC BY 4.0"
# Face numbers: see ../faces/d8.json
o d8
v -0.2717 -11.9966 0.2717
v 0.2717 -0.2717 11.9966
v -0.2717 -0.2717 11.9966
v -0.2717 0.2717 11.9966
v 11.9966 -0.2717 0.2717
v 11.9966 0.2717 0.2717
v 11.9966 0.2717 -0.2717
v -0.2717 11.9966 -0.2717
v -11.9966 0.2717 -0.2717
v -0.2717 11.9966 0.2717
v -11.9966 -0.2717 0.2717
v 0.2717 -11.9966 0.2717
v 0.2717 -11.9966 -0.2717
v 0.2717 11.9966 0.2717
v 0.2717 0.2717 11.9966
v 0.2717 -0.2717 -11.9966
v -0.2717 -0.2717 -11.9966
v 0.2717 0.2717 -11.9966
v -0.2717 0.2717 -11.9966
v -0.2717 -11.9966 -0.2717
v 11.9966 -0.2717 -0.2717
v -11.9966 -0.2717 -0.2717
v -11.9966 0.2717 0.2717
v 0.2717 11.9966 -0.2717
f 1 2 3
f 4 3 2
f 5 6 2
f 7 6 5
f 8 9 10
f 11 1 3
f 11 3 4
f 12 2 1
f 12 1 13
f 12 13 5
f 12 5 2
f 14 10 4
f 14 6 7
f 14 8 10
f 15 6 14
f 15 14 4
f 15 4 2
f 15 2 6
f 16 13 17
f 16 17 18
f 16 18 7
f 19 18 17
f 19 17 9
f 19 9 8
f 19 8 18
f 20 1 11
f 20 17 13
f 20 13 1
f 21 13 16
f 21 16 7
f 21 7 5
f 21 5 13
f 22 17 20
f 22 20 11
f 22 11 9
f 22 9 17
f 23 9 11
f 23 11 4
f 23 4 10
f 23 10 9
f 24 8 14
f 24 14 7
f 24 7 18
f 24 18 8
